<svg xmlns="http://www.w3.org/2000/svg" width="1137" height="1024" fill="none" viewBox="0 0 1137 1024"><path fill="#000" d="M440.379 0h2.023c9.47 5.658 37.983-1.647 49.205 5.108 5.412 3.257 15.849 4.766 21.831 7.705a38.8 38.8 0 0 1 9.313 6.304c8.665 7.94 10.216 15.905 17.104 24.268 2.699 3.275 7.518 7.16 10.689 10.713 3.977 4.458 4.46 7.545 7.224 11.715 4.07 5.798 8.889 11.956 11.071 18.74 2.992 9.313.238 24.897-3.637 33.595-2.742 6.148-15.12 15.126-20.051 19.762-5.803 5.456-10.421 11.346-18.835 12.542-14.301 2.836-28.303 7.022-42.564 10.024-5.097 1.073-11.188 4.966-16.007 5.668-13.284 1.937-23.697.532-36.46 6.249-6.643 2.977-14.351 5.488-20.996 8.726-7.656 2.801-12.627 4.504-19.414 8.905-2.389 1.549-16.133 9.372-17.386 9.49-1.49-1.517-1.559-1.417-2.011-3.42 1.874-3.721 4.299 2.333 8.767-8.073-13.222 6.982-26.491 12.296-38.868 21.121-4.229 3.017-8.311 6.471-12.581 9.446-16.086 7.892-27.555 21.294-39.381 34.393-3.479 3.854-8.696 8.575-11.616 12.495-20.602 27.66-42.871 54.619-60.106 84.555-5.335 9.265-10.987 17.568-13.8 28.246-1.043 3.323-4.15 18.33-3.738 21.09 1.953 1.408 10.522 3.561 13.303 4.522 21.293 7.357 41.818 15.451 62.271 24.901 4 1.847 9.485 3.205 13.722 4.88 3.109-3.738 6.358-7.609 8.699-11.878 2.524-4.602 4.398-9.726 7.29-14.114 11.198-16.995 22.927-33.659 34.394-50.473 2.874-4.214 5.577-8.187 8.764-12.19a504 504 0 0 1 41.072-45.67c8.44-8.302 20.872-17.48 27.202-26.556l4.092-1.249 2.997-5.095c2.282-.783 5.41-1.754 7.553-2.702 2.673-4.326 3.324-4.795 6.693-8.435 2.292.195 4.909.486 7.177.582 4.045-4.574 6.214-7.731 11.78-10.433l.546-.271c6.491 4.823 13.591 7.605 21.54 9.137 3.76-3.32 7.935-8.213 13.185-7.199 9.328 1.801 22.893 6.895 28.108 14.994 2.964 1.283 4.397 1.901 7.537 2.759 4.061 16.42 15.258 15.804 26.593 25.887 12.172 10.827 26.068 41.277 16.88 56.706-7.145 11.997-24.879 19.833-38.499 17.966-3.598-.348-8.082-1.041-11.736-.615-6.097 1.579-8.595 5.486-15.073 7.424-14.19 4.247-28.373 4.482-42.837 6.51-5.751.806-19.159 8.022-23.793 11.983-7.002 5.984-16.591 15.113-26.02 16.632-.533.021-3.068-1.852-5.131-.621-6.611 3.945-11.013 13.576-13.704 20.074 5.217 3.832 8.984 2.903 13.713 5.333 10.118 5.509 17.974 2.192 27.926 8.481 6.282 3.97 18.173 6.202 24.685 10.839 14.878 10.594 32.511 20.023 41.926 36.056 2.251 3.834 9.482 8.596 12.703 11.966l5.576 1.124c1.909 7.014 9.194 17.826 9.589 21.811 2.894 29.148-2.389 56.579-16.862 82.226-6.58 11.661-9.345 27.085-25.418 31.042-30.112 5.661-47.672-28.677-64.51-44.928-3.495 3.336-9.819 7.826-12.585 11.222-3.32 4.074-9.567 10.795-12.194 15.013-5.405 8.686-10.31 16.695-17.496 24.16-4.49 4.662-11.029 8.525-11.49 15.43l.358.571c5.167-.483 10.231-1.265 15.313-1.704a456 456 0 0 1 16.839-12.116c26.576 2.898 29.664 13.104 56.415 5.39 6.871 3.801 13.283 6.038 19.735 9.457 8.712 4.612 30.823 19.115 37.52 26.174 2.849-10.167 5.725-19.536.419-29.976-1.896-3.729-4.914-5.284-5.253-9.851 2.972-8.364 13.522-10.296 9.85-22.023-1.688-5.395-.396-12.627 1.101-18.066 3.517-1.443 6.149-3.036 9.321-5.145 2.33-6.122 5.267-11.766 8.461-17.472 3.025-5.4 2.619-7.687 9.084-9.274 16.749-21.543 34.559-45.942 34.176-74.452-3.725-6.065-5.485-8.276-11.298-12.567-.639-2.221-.927-3.465-2.243-5.429-2.654-3.955-12.097-8.501-10.954-13.596 3.559-1.74 27.781 8.114 32.012 9.882 24.117 10.083 37.252 27.542 49.177 49.493 7.562 13.908-4.691 36.096-1.976 40.103 4.375 1.327 9.543-2.175 13.807-3.047 4.947-1.01 14.784-1.138 16.3-7.315 2.826-11.514 3.359-23.239 4.38-35.065l3.592-39.737c.234-2.737 2.443-16.873 2.465-18.375.106-6.903 2.948-44.995 1.399-49.331-1.199-1.029-1.121-1.002-2.592-1.569.921-2.947 3.497-6.633 3.514-9.126l-.461-.188c-5.019 4.562-18.326 15.441-25.227 13.411l-.222-.972c1.665-1.653 3.409-2.499 3.814-4.212-2.376-.67-17.449 4.949-22.912 5.05-36.586.685-72.911 2.316-109.486.567-8.3-.397-14.932 2.162-23.583 1.746 9.282-4.464 18.902-7.023 28.384-10.891 6.558-2.675 13.023-5.007 19.659-7.402 7.551-2.815 14.38-6.994 21.48-10.655 6.618-3.414 13.608-6.329 20.27-9.703 11.303-5.723 20.458-14.47 31.406-20.686 3.52-2 4.603-3.817 6.257-7.375 4.736-2.227 15.267-6.842 18.571-10.313 9.41-9.877 32.589-22.991 39.512-33.645.638-17.022.477-32.923.272-49.915-.067-25.645 1.66-51.364-1.677-76.858-.561-4.306 1.466-12.165.999-16.24-1.599-13.901.605-33.731-2.57-46.795-8.189-3.625-21.463-9.521-26.593-16.622-1.505-8.656 1.293-11.35-1.732-19.848-2.221-1.425-6.19-3.893-7.978-5.612-8.489-8.15-7.823-12.939-20.048-15.553a425 425 0 0 0 8.128-7.076c-5.168-8.992-6.84-10.816-7.955-21.213 5.524-1.441 10.614-1.614 12.163-7.642 19.576-10.407 29.758-7.273 50.91-9.022 4.236-.35 9.416-.347 13.358-1.792 3.442-1.263 5.285-1.252 8.86-1.408.45-1.6.122-1.967-.244-3.74l.522-.904c17.316-2.954 25.627-3.784 42.465 2.58 3.742 1.415 5.346 2.324 7.562-.539l1.06.114c.283 1.005.494 1.835.716 2.855 9.999 3.94 19.72 8.163 29.636 12.596 4.552 2.036 16.039 3.225 19.925 5.914 6.534 4.523 16.216 10.496 22.884 15.046 2.848 1.946 4.974 11.389 8.528 13.539 4.408 4.387 6.884 14.335 6.29 20.285-1.322 13.284 3.458 25.496-7.634 35.764-7.001 6.478-13.552 7.656-20.386 14.053-1.005 6.265-7.839 31.189-5.713 35.914 3.587 1.028 11.937-4.373 16.2-4.239-.083-.003 2.204-.351 2.193-.349 2.46-2.287 4.031-3.719 6.163-6.323 11.009-3.234 18.87-1.409 29.779 1.866 6.546 1.966 7.845 2.438 14.39.731 5.785 1.524 15.762 7.095 21.819 9.824 7.206 3.244 14.901 6.656 22.024 10.101 6.14 2.965 12.136 7.347 18.043 10.899 8.638 5.193 27.637 13.424 32.866 21.678 4.692 7.398 8.25 26.345 5.746 34.951-2.22 7.643-10.509 13.323-15.35 18.72-3.187 4.356-5.991 9.767-8.239 14.665-5.579 12.267-16.106 19.768-27.614 25.982-5.141 2.774-11.209 4.627-16.534 7.122-19.78 9.272-41.549 13.121-61.652 21.521-5.635 2.356-11.17 6.1-16.966 8.218-12.664 4.13-29.635 8.395-41.883 13.213-3.653 5.917-13.851 14.31-20.646 15.945.022 9.525-3.665 13.557-5.03 22.023-3.204 19.88-8.095 39.531-11.792 59.214l-1.893-.248c-.928-1.566-.85-6.307-.955-8.471.299-6.501 3.469-24.981 1.865-28.775l-.544-.407c-1.31.362-2.887 1.542-3.137 2.455-2.126 7.664-6.745 23.423-7.783 30.591-1.427 9.921-.189 16.443-2.898 26.102-.228-4.117-.395-8.532-.811-12.61a352 352 0 0 1-4.136 16.549c.161-6.321 1.682-16.332.75-21.757l.227-.746-.427-.758-1.694.557-.294-4.527c.394-3.456-1.754-7.569-3.081-11.016l-.689-.194c-1.204 1.74-3.53 5.769-3.436 7.86 3.164 3.994-2.032 7.862-2.626 11.808-2.876 19.061-4.269 38.393-6.757 57.502-1.115 8.562 1.139 15.638-1.804 23.671 2.715 2.408 5.785-2.194 8.616-3.087l2.693.399c2.826-.332 11.359-.906 13.163-2.725 1.272-1.284.711-3.707 2.837-6.425.6 1.953.217 4.757.084 6.885 12.002-6.98 44.203-14.161 58.31-18.133 11.081-3.121 22.096-1.998 32.255-9.661 2.071.052 6.185.406 7.895-.329l1.133-1.219c1.804.734 2.281 1.311 3.858 1.006 1.715-5.027-.855-16.621.427-23.659 2.032-11.195 17.033-23.376 20.248-31.134 8.139-19.621 2.148-11.709 19.287-23.48 14.034-9.635 21.29-19.754 40.255-22.514a34.2 34.2 0 0 1 10.354.157c5.535.917 21.425 7.03 23.912.471l.355-.957c6.113-3.229 18.487 10.078 23.184 13.045 3.687 2.328 8.215 3.196 11.735 5.085 21.44 11.49 43.32 32.818 33.45 59.27-2.44 6.507-6.01 10.659-9.28 16.706-3.09 8.056-4.1 14.046-7.7 22.397l-4.93 3.162c-3.18 9.338-5.54 18.507-8.47 27.619-5.2 16.179-4.97 32.613-10.552 47.976-4.636 12.765-15.129 25.264-19.537 38.801-1.293 3.558-15.417 21.856-17.527 23.855-8.577 1.581-7.35 4.884-12.907 8.175-8.406 4.973-9.333 3.019-15.812 11.372l-.2-6.544c-1.604-1.348-.677-.86-3.064-1.126l-.805.549.572 2.254-.772.51c-1.133-1.149-1.061-1.199-1.749-2.697l-1.382-.622-.528.55c.455.943 1.138 1.759.75 2.458-1.033 1.854-4.131 4.557-5.78 6.156-4.586.771-11.331 2.658-15.411 1.221-1.033-1.061-.961-1.022-1.555-2.404-2.176-.616-6.984 1.654-8.827 1.316-8.383-1.527-14.401-3.63-22.973-4.551-5.508-5.639-8.334-8.015-14.64-12.96-.583-3.147-1.149-6.605-1.832-9.702-1.427-1.481-2.982-3.041-4.331-4.567-.333-5.706-2.298-7.876.117-11.878l2.109-3.574c2.143.2 4.908.76 6.724-.139 1.082-2.364 1.027-4.989 2.62-7.076 1.943-2.542 4.525-32.635 3.709-37.302-.406-2.298-1.138-4.235-2.859-5.839-2.027-.755-3.204-.572-5.241.144-3.687 1.288-15.429.255-18.849-1.582a64 64 0 0 1-2.342-1.332c-1.077.883-1.111 1.127-1.855 2.326-7.339 2.919-12.241 5.672-20.025 4.451-1.321-.205-2.271 1.715-4.813 1.565-6.307-4.901-8.711 2.914-14.118 3.474-.489-.804-.594-1.032-.95-1.903-2.032.2-7.478 2.231-9.71 3.002-.416.7-.821 1.41-1.216 2.121l-.638-.017-.866-2.359c-2.721-.91-6.834 3.236-9.388 4.074-2.287.755-5.502-.156-7.823.588-4.73 1.526-12.952 7.898-17.876 6.1-5.358 7.215-6.735 22.933-8.211 32.041-4.181 25.802-7.018 52.404-7.318 78.54-.066 5.711 10.976 11.544 14.94 15.096 6.668 4.89 15.912 11.283 23.168 15.379 5.546 3.131 13.363 5.7 19.225 8.736 4.658 2.531 9.322 8.065 14.063 10.24 23.59 10.851 49.022 19.537 74.227 25.642 7.811 1.887 17.666-1.304 25.144-3.108 5.685-1.376 12.414-1.46 18.238-2.265 4.247-.455 17.832 2.598 20.424.916 5.597-3.635 13.847-14.885 18.255-20.397 2.542-3.18 6.051-11.71 8.494-15.296 4.724-6.943 9.121-14.108 13.763-20.99 19.47-28.867 41.58-60.558 54.74-92.793 4.9-12.01 11.7-38.385 14.57-51.233l1.09-.017c1.65 2.936-.63 5.128 1.29 7.715.09.133 1.27 2.07 1.27 1.998-.3 8.691-.91 17.749-2.13 26.402.33.349.65.699.98 1.054 2.54-2.902 5.93-28.522 7.13-33.806 2.8-12.243 2.47-25.397 5.19-37.847 1.14 9.603-4.11 59.326-1.38 62.901l1.37-2.892.65-.116c.74 2.009.84 2.936 1.18 5.078 1.4-1.121 1.42-6.2 1.48-8.092l.28.821c1.26 3.769 1.35 4.984 1.65 8.947l.45.222 1.42-2.337.63.228.48 1.787c-.3 3.397-.38 4.068.21 7.493l.29.055c.39-6.371 1.01-17.516.47-23.604.02-4.08-.34-7.82 1.06-11.583 2.69 2.53-1.77 31.491 4.55 34.799 4.91-3.402-.83-90.785 3.17-98.456l.81-.251c.95 2.162-.36 5.339-.08 8.728l.61.223 1.23-2.895.53-.151c1.25 4.133 2.79 14.171 3.43 18.669-.06 2.306-.32 3.802.61 5.905l.72.155c.68-1.548.27-4.295-.26-5.803-.56-5.935-5.32-48.393-4.05-50.307 2.38 2.894 3.94 12.204 5.13 16.06.3.99.7-.424 1.87 1.728l-1.44 1.516.36.741 3.48.45c1.41 2.146-1.1 7.283 3.92 13.168 2.96 3.484 6.36 19.201 7.66 24.118.45 1.987-.82 4.135.63 4.829l1.07-.356c1.69 1.282 2.25 1.793 3.73 3.314.03 2.47-.04 4.701.37 7.143.87.311 1.54.533 2.42.783-.74 3.169-1.71 3.191-4.65 4.412-1.47 3.097.1 5.883 2.49 8.003l-.68-2.575.49-.472c2.59.755 3.34 1.671 4.62 4.168 3.77 7.404 6.77 15.052 9.79 22.772.87 2.232 4.98 6.555 5.46 9.175-1.29 1.709-1.91 2.12-1.86 4.262l.76 1.632.68-.083c.52-.933 1.6-3.069 2.3-3.658l.78.478c.65 2.93-1.18 4.617-1.6 7.148-.2 1.127 2.34 5.423 1.82 7.082l-1.24-.055c-.64 1.315-.49 1.337-.32 2.836 1.06 1.06 2.06 1.11 3.54 1.454v1.299c-1.11.349-1.53.549-2.59 1.015-2.87 6.105 1.11 15.024-1.97 23.738 3.58 6.688 4.5 7.621-1.55 12.022-.92 3.441-1.63 5.372-2.95 8.686 2.91 3.68 3.93 15.684 1.7 19.325l-.72.034-.59-2.726-.47-.144c-.49 1.282-.81 1.715-1.67 2.786-.18 2.381-.43 1.549.58 3.558 3.06 1.499 3.57 2.104 2.01 5.617-2.16 4.845-3.74 9.563-4.33 14.863-1.27 11.367-5.7 22.495-2.51 33.817-2.52 7.409-1.07 20.846-2.57 29.005-.56 3.036-1.98 7.304-2.77 10.445l-7.68 30.121c-2.61 10.046-4.79 21.152-7.27 31.258-1.66 6.744-7.72 15.169-10.53 21.984-2.55 6.189-4.21 12.943-5.37 19.431-1 5.628-6.4 10.002-11.27 12.427-18.2 8.353-41.99 5.167-61.26 4.507-18.567-.627-36.077-.855-54.526-2.315-8.372-.666-17.427-2.73-25.721-3.951-14.957-2.198-29.641-4.429-44.387-7.67-8.694-1.838-18.809-2.648-27.786-4.518-13.674-2.853-26.254-5.423-39.629-9.597-7.061-2.203-13.368-3.047-20.68-6.232-4.602-2.054-9.155-4.318-13.629-6.672-12.242-6.449-27.743-11.583-39.59-18.137-13.158-7.277-26.499-20.214-40.961-25.348-7.034-2.497-18.931 5.856-25.677 7.238-10.498-.628-26.887.61-36.392-.456-6.378-.716-17.388-15.512-20.502-20.957-11.57-20.241-4.508-48.625 2.515-69.282 2.187-6.25 5.402-16.395 6.651-22.822 1.593-5.972-3.864-24.921-1.31-29.444 8.688-15.379 12.402-20.974 17.304-38.446-.322.011-.638.017-.96.022-2.554.422-6.707 3.752-8.716 5.334-4.897 3.846-12.83 9.141-16.25 14.198-3.52 5.2-6.035 11.927-10.449 16.639-6.634 7.071-14.229 7.42-23.084 7.615-7.672 8.752-11.992 9.951-23.662 12.066-4.852-2.964-5.907-3.58-9.038-8.265-6.539 1.615-19.616 5.328-25.764 4.923-.082 3.652-2.25 12.616-2.116 14.286 2.075 25.864 1.097 45.084-21.557 61.329-11.167-6.099-12.957-1.187-19.795 6.772-1.981-1.643-5.261-5.878-7.549-5.845-3.905.061-5.63 4.235-8.991 7.038-.515.011-3.269.1-3.547.277-4.654 3.342-8.519 7.881-12.828 11.583-2.761 2.376-6.42 4.968-9.504 6.955-3.507 2.259-8.52 7.515-12.681 5.084-5.919-10.235-6.493-33.362-9.118-44.307-4.988-20.796-2.451-35.399-22.72-47.659-.349-.211-8.178-14.958-10.193-17.133-2.896-3.131-7.82-7.876-11.175-10.978-2.78-2.964-1.946-6.905-7.635-11.417-7.087-5.622-15.132-15.407-18.559-23.788-.388.183-.961.444-1.288.677-21.327 15.241-42.67 30.476-63.939 45.783-2.604 1.876-3.531 5.018-1.539 7.798 3.238 1.599 19.72 4.573 24.123 5.023.709.072 8.334-.311 9.663-.355 8.048 5.95 10.208 3.807 19.151 7.054 8.204 2.814 14.853 7.543 22.117 11.949 5.802 3.519 7.814 2.42 12.032 8.659 12.249 4.412 15.229 24.165 28.358 24.964l.558.033c1.846 2.06 2.237 4.685 3.363 7.116 5.159 11.128 6.013 19.908 8.052 31.813-2.486 6.166-5.105 18.188-5.291 25.037-.274 10.14 2.565 21.623-2.509 31.624-4.898 9.652-19.105 21.391-29.618 24.804-9.977 1.926-13.308.999-24.585 4.834-4.797-1.515-21.728-9.812-24.29-13.942-2.627-4.479-10.048-11.655-11.937-16.001-10.207-23.466-20.343-47.57-29.248-71.519-3.95-10.623-1.218-24.765-9.43-33.839-8.43-9.319-6.413-15.84-5.525-27.062l-.569-.222c-9.267 4.49-19.35 20.413-26.138 28.105-2.458 2.787-10.933 5.523-12.475 9.419-3.241 8.186 9.743 18.26 13.93 24.67 2.703 4.141 4.36 6.511 5.639 11.217 1.507 5.55 4.688 8.925 6.514 14.603l17.305 54.385c2.342 7.166 5.877 16.096 7.964 22.861 1.224 3.969.704 17.766 1.505 23.267 1.044 7.17 3.87 12.027 4.958 18.198 1.261 7.149-.028 18.022-.057 25.792 4.745 6.038 4.147 17.694 4.685 25.867-14.791 26.52-41.887 20.5-65.804 12.17-2.684-.93-10.122-5.97-12.313-7.86-15.336-13.188-31.522-25.759-44.414-41.455-2.869-3.508-4.818-10.789-7.452-14.736-2.193-3.285-4.563-6.177-6.88-9.357-9.526-19.414-6.612-42.22-10.48-63-1.767-9.49 3.503-13.903 8.739-20.53-1.801-17.832-14.386-60.257-29.322-70.42-.817-2.875-1.803-6.46-4.039-8.453-11.06-9.851-23.688-17.338-35.742-25.708-9.393-6.527-17.866-14.663-26.536-22.195-2.961-2.575-13.946-10.789-15.9-13.02-7.815-9.203-15.606-18.76-22.513-28.684-.414-2.17-10.379-16.567-10.414-17.099-.479-7.21-4.997-14.481-7.617-21.43-.194-.516-2.309-18.171-2.198-19.63.415-5.467 1.416-16.712 4.137-21.84 2.472-3.391 9.858-3.608 13.72-4.646 10.825-2.908 14.014-2.242 21.818 5.772 6.242 6.411.833 7.177-3.055 11.018-4.694 4.639 4.475 7.603 6.473 9.124-1.032 1.238-1.316 1.326-1.476 2.919 1.251 2.187 5.506 9.796 6.933 11.411 21.623 24.304 52.287 38.796 79.445 55.957 5.303 3.352 10.982 6.005 16.646 8.453.394.172 4.868 6.466 5.963 7.648 1.804.61 1.074.527 3.278-.433 3.753 3.524 8.425 6.05 12.327 9.418 3.518 3.036 4.886 8.104 10.267 8.309 5.58-4.052-2.58-21.501-4.715-26.824-.882-2.203-8.837-8.186-9.322-10.989-1.679-9.702 1.239-21.651 1.266-31.664-.666-12.482-2.245-13.958 2.05-26.196l-2.174-9.558c8.895-15.623 11.747-12.693 24.482-22.35 1.993-1.51 10.858-20.497 12.882-24.515 5.85-11.611 21.167-32.216 21.049-44.984-2.12-4.236-7.052-2.003-12.358-7.235-1.948-.292-1.976.235-4.183 1.419-7.41-2.311-10.885-3.337-18.592-3.844-.666 23.99-29.13 17.495-39.361 26.253-10.076.094-21.491 3.499-31.022-.579-8.396-3.594-17.731-11.121-24.323-17.45-2.286-2.194-4.552-7.699-7.152-9.9-9.442-7.11-19.095-15.121-27.514-23.421-2.145-2.116-10.069-20.341-10.49-23.284-1.874-13.084-3.236-27.553.17-40.479 2.057-7.996 4.18-14.186 4.443-22.505.811-1.245 2.191-2.935 3.128-4.161a37 37 0 0 1-.445-1.899c-5.924-28.987 32.33-32.567 45.843-52.78 12.715-3.316 33.896-22.238 42.136-32.95 6.768-10.411 12.519-22.78 19.252-33.279 11.424-17.814 22.699-35.889 35.103-52.996 6.363-8.776 13.69-16.584 20.239-25.055 11.326-14.65 22.68-29.943 34.857-43.869 23.27-26.61 48.998-51.071 73.519-76.483 8.616-8.79 18.97-16.23 28.12-24.463 1.379-1.25 1.52-2.263 1.467-3.88-3.738-4.904-37.984-10.858-43.306-14.517 6.951-5.1 10.442-5.257 18.756-6.596-3.062-.64-7.252-1.068-9.813-2.407-.709-1.258-.892-1.256-.753-2.643 2.126-.86 5.091-.024 7.448-.232 14.339-1.266 20.689-5.594 25.286-19.242 17.772-3.77 36.334 4.58 48.884-13.937 16.403-3.177 13.094-6.769 31.663-2.316 2.162-1.089 3.754-2.14 5.78-3.433M308.401 573.429c-1.566 7.126-4.686 10.429-7.519 16.617-2.382 5.206-7.435 18.166-7.341 23.544l.453-.25c2.316-1.232 4.736-1.46 6.66-3.119 15.558-13.421 40.428-27.651 52.518-44.046l-.987-.189c-22.188 8.897-26.337-6.233-43.784 7.443m50.134-92.122c3.776 4.346 6.458 9.33 11.365 11.879 2.955 1.535 6.288 2.889 9.206 4.386 2.145 1.101 1.749 2.76 4.898 4.189 2.724.938 9.019 3.665 11.474 2.439 1.456-4.419-8.669-29.486-11.693-34.736-3.013-5.229-4.283-9.498-9.798-12.363-.912 2.949-12.893 20.703-15.452 24.206m-86.419-261.446c-12.071 11.081-23.423 16.263-30.509 31.142-2.594 3.554-9.759 7.603-12.082 10.594-7.922 10.2-12.465 20.219-22.216 29.122-3.546 3.238-13.771 27.428-12.007 31.98-1.926 3.753-2.707 1.396-4.309 4.191-1.452 2.533-2.277 6.666-2.656 9.568l.434.783c2.014-.652 3.042-1.815 4.546-3.36l1.677-1.089.841.488c.337 2.313-.57 2.765-2.577 3.744l-.577.993c-.551 1.397-.659 1.521-.841 2.988 1.592.898 1.856-.205 4.774-.186l.748 1.011c.21 2.652-.987 4.972-1.96 7.536 13.71-20.774 26.437-35.555 41.673-54.836l26.63-33.367c13.778-17.15 26.567-31.831 41.652-47.855-4.64 2.248-17.261 13.083-19.207 13.06-.632-1.466-.157-3.029.043-4.823-3.999 2.186-5.718 7.401-10.092 7.59-1.465-1.037-2.171-1.26-3.654-2.1.85-2.629 1.416-2.696 1.829-5.673-1.436.517-2.979 3.064-4.005 4.465l-.657-.404zm445.265 321.512c4.486-3.756 7.295-58.282 8.55-68.481.622-5.072 4.602-33.032 3.536-36.58l-.782-.805c-1.732 3.365-1.583 7.486-2.21 11.206-2.67 15.715-4.736 31.423-7.473 47.129-.999 5.725.034 13.297-.488 19.261-.328 7.837-3.859 21.195-1.133 28.27m10.171 141.432c2.16-7.187 2.049-14.891 3.253-22.3 1.988-12.205 3.326-24.509 4.836-36.781.278-2.281-.922-3.868-2.759-5.067-5.052 7.11-10.415 59.292-5.33 64.148m-35.02-148.592c1.41-3.365 4.919-38.113 4.647-42.011l-1.139-.896c-1.698 8.999-1.698 18.204-2.781 27.282-.539 4.563-1.238 9.103-1.893 13.651-.117.834.616 1.498 1.166 1.974M1091.5 522.92c.2 4.086-.35 7.934 3.06 10.662-.39-2.124-1.24-9.233-2.19-10.339zm-407.118-20.45c-.317 4.354-.561 9.111-1.027 13.418l.605-.013c1.493-3.442 2.57-10.137.422-13.405m-7.739 48.939c1.537-3.834 1.587-5.665 2.148-9.812l-.799-1.646-.861-.038c-1.882 2.736-1.032 8.35-.488 11.496m37.729-65.03c-1.832 5.208-2.087 8.269.666 13.026.694-3.26 2.488-11.06-.666-13.026m-12.225 1.758c.661-4.641 1.866-10.399.544-14.808l-1.043-.867c-1.172 6.4-1.305 8.357-.395 14.756z"/><path fill="#000" fill-opacity="0.94902" d="M282.774 227.403c.983.213.684.159 1.579.74-.593 1.402-4.179 3.814-5.842 5.245l-1.163-.068c.177-2.378 3.572-4.58 5.426-5.917"/><path fill="#191a1b" d="M678.791 541.597c1.072-4.298-.1-15.03 2.782-17.278 2.848 1.681.183 26.917-2.338 30.772-2.115-.384-1.121.017-2.936-1.546l-.411-1.323.755-.813c1.538-3.834 1.588-5.666 2.148-9.812"/><path fill="#000" fill-opacity="0.0431373" d="m696.04 491.306 1.139.896c.272 3.898-3.237 38.646-4.647 42.011-.55-.476-1.283-1.14-1.166-1.975.655-4.547 1.354-9.087 1.893-13.65 1.083-9.078 1.083-18.283 2.781-27.282"/><path fill="#000" fill-opacity="0.92549" d="M193.317 333.881c.762-2.854 2.921-6.919 4.813-9.209l.845.123c.869 3.446-1.584 11.635-4.698 13.543l-1.596-.321.577-.993c2.006-.979 2.914-1.431 2.577-3.744l-.841-.488z"/><path fill="#000" fill-opacity="0.184314" d="M684.382 502.471c2.148 3.268 1.071 9.962-.422 13.404l-.606.014c.467-4.308.711-9.064 1.028-13.418"/><path fill="#000" fill-opacity="0.054902" d="m1091.5 522.92.88.323c.94 1.106 1.79 8.215 2.18 10.339-3.41-2.728-2.86-6.576-3.06-10.662"/><path fill="#000" fill-opacity="0.0627451" d="M270.271 225.827c1.026-1.401 2.569-3.947 4.005-4.465-.413 2.977-.979 3.044-1.828 5.674z"/><path fill="#000" fill-opacity="0.94902" d="M732.466 535.306c.96-7.619.938-16.227 1.871-23.572 1.771-13.876 3.825-27.742 5.535-41.626.472-3.814 1.749-19.367 2.37-21.346l.295 4.527 1.693-.557.428.758-.228.746c-.833 2.775-.866 4.551-1.349 7.208-4.431 24.415-6.507 49.525-7.923 74.261z"/><path fill="#000" fill-opacity="0.929412" d="M763.972 450.807c-5.502 9.102-8.095 49.7-10.493 60.979-.566 2.672-.206 5.885-1.31 9.179l-.4-.297c-1.066-19.973 6.096-44.187 7.273-64.386.272-4.682 1.16-9.584 2.082-14.194.105 2.164.027 6.905.955 8.471z"/><path fill="#000" fill-opacity="0.666667" d="M1073.09 602.634c.54 6.088-.08 17.233-.47 23.604l-.29-.055c-.59-3.424-.51-4.096-.21-7.493.43-.943.83-13.992.97-16.056"/><path fill="#000" fill-opacity="0.0705882" d="m1088.4 551.717 1.07.257c.53 1.508.94 4.255.26 5.804l-.72-.156c-.93-2.103-.67-3.599-.61-5.905"/></svg>