<svg xmlns="http://www.w3.org/2000/svg" xml:space="preserve" id="레이어_1" x="0px" y="0px" viewBox="0 0 215.2 218"><style>.st0{fill:#b89f75}</style><path d="M79 97.1c6 .7 11.5 3.2 15.9 7.3l.1.1c2.1 2 4.9 3.3 7.8 3.6 7.5.9 14.2-4.5 15.1-12l-3.9-.4c-.6 5.3-5.4 9.1-10.7 8.5-2.1-.2-4-1.1-5.5-2.5l-.1-.1c-5.1-4.7-11.4-7.6-18.2-8.4-9.5-1.1-18.6 2.1-25.2 8.1l2.1 3.4c5.8-5.6 13.9-8.6 22.6-7.6" class="st0"/><path d="M120.1 96.4c-1 8.7-8.9 15-17.6 14-3.4-.4-6.6-1.9-9.1-4.3l-1.8-1.5c-3.7-2.9-8.2-4.7-12.9-5.2-8.1-.9-15.7 2-21.1 7.3l2.2 3.4c4.6-4.9 11.4-7.6 18.5-6.8 4.7.5 9 2.5 12.5 5.7l1.8 1.5c2.8 2.1 6.1 3.4 9.6 3.8 10.9 1.2 20.7-6.6 22-17.4z" class="st0"/><path d="M79.7 90.9c7.4.8 14.2 4 19.6 9 1.2 1.1 2.6 1.8 4.2 2 4 .5 7.7-2.4 8.2-6.5l-3.9-.4c-.2 1.9-1.9 3.2-3.8 3-.7-.1-1.4-.4-1.9-.9-6.1-5.7-13.7-9.2-22-10.1-11-1.3-21.4 2.3-29.3 8.9l2.1 3.4c7.1-6.3 16.7-9.6 26.8-8.4m-29.3 45c-2.4-5.5-3-11.6-1.7-17.4v-.1c.7-2.9.4-5.9-.8-8.6-3-6.9-11-10.1-17.9-7.1l1.6 3.6c4.9-2.1 10.6.1 12.7 5 .8 1.9 1 4 .6 6v.2c-1.5 6.7-.9 13.6 1.9 20 3.8 8.8 11.1 15 19.6 17.8l1.9-3.5c-7.8-2.4-14.5-8-17.9-15.9" class="st0"/><path d="M29.2 100.5c8-3.5 17.4.2 20.9 8.3 1.4 3.2 1.7 6.7.9 10l-.4 2.3c-.6 4.7 0 9.4 1.9 13.8 3.2 7.5 9.6 12.6 16.9 14.7l1.9-3.6c-6.5-1.6-12.3-6-15.2-12.7-1.9-4.3-2.3-9.1-1.3-13.6l.4-2.3c.4-3.5-.1-7-1.5-10.2-4.3-10-16.1-14.6-26.1-10.3z" class="st0"/><path d="M44.7 138.3c-3-6.8-3.6-14.3-2-21.5.4-1.6.2-3.2-.4-4.7-1.6-3.7-6-5.5-9.7-3.8l1.6 3.6c1.7-.8 3.8.1 4.5 1.8.3.7.4 1.4.2 2.1-1.9 8.1-1.1 16.4 2.2 24 4.4 10.1 12.7 17.4 22.4 20.9l1.9-3.5c-9-3-16.7-9.6-20.7-18.9m53.6 2.9c-3.6 4.9-8.5 8.4-14.3 10.2h-.1c-2.8.8-5.3 2.6-7.1 4.9-4.5 6-3.2 14.6 2.8 19l2.3-3.2c-4.3-3.2-5.2-9.2-2-13.5 1.2-1.7 3-2.9 4.9-3.5h.2c6.6-2 12.2-6 16.4-11.6 5.7-7.7 7.5-17.2 5.6-25.9l-4 .1c1.9 7.9.4 16.5-4.7 23.5" class="st0"/><path d="M78.3 177.2c-7-5.2-8.5-15.2-3.3-22.2 2-2.8 4.9-4.8 8.2-5.8l2.2-.8c4.4-1.8 8.1-4.7 11-8.6 4.8-6.5 6.2-14.6 4.3-21.9l-4.1.1c1.9 6.4.9 13.7-3.4 19.5-2.8 3.8-6.7 6.6-11.2 7.9l-2.2.8c-3.2 1.4-6 3.6-8.1 6.4-6.5 8.8-4.7 21.2 4.1 27.7z" class="st0"/><path d="M103.3 144.9c-4.4 6-10.5 10.3-17.6 12.5-1.5.5-2.9 1.4-3.8 2.7-2.4 3.3-1.7 7.9 1.5 10.3l2.3-3.2c-1.5-1.1-1.8-3.3-.7-4.8.4-.6 1-1 1.7-1.2 7.9-2.4 14.8-7.2 19.7-13.9 6.6-8.9 8.7-19.7 6.9-29.8l-4 .1c1.9 9.2 0 19.2-6 27.3M39.8 1.8h-6.1l42.2 81.1L79 77zm9.6 0h-6.1l37.4 71.9 3.1-5.9zm62.6 0L82.5 58.6l3.1 5.9 32.6-62.7zm-3.4 0h-6.1L77.7 49.3l3.1 5.9zM136 91.2h5.5v63.7H136zm40.1 67H136v5.5h35.3c1.7-1.7 3.3-3.6 4.8-5.5" class="st0"/><path d="M132.8 166.5V91.2h-5.5V172h32.9c2.8-1.6 5.4-3.4 7.9-5.5z" class="st0"/><path d="M210.7 100.5c0 38.8-8.3 64.5-26.1 81-16 14.8-36.5 19.4-58.3 24.2-2.6.6-5.6 2.1-8.7 3.6-3.4 1.7-6.8 3.4-10.1 4.2-3.2-.7-6.7-2.5-10-4.1-3.1-1.6-6-3-8.7-3.6-21.8-4.9-42.4-9.4-58.4-24.2-17.8-16.5-26.1-42.2-26.1-81V.4L0 .1v100.4c0 40.1 8.7 66.9 27.5 84.2 16.9 15.6 38 20.3 60.4 25.3 2.1.5 4.8 1.8 7.7 3.3 3.6 1.8 7.6 3.8 11.6 4.6l.5.1.4-.1c4-.8 8-2.8 11.6-4.6 2.9-1.4 5.5-2.8 7.7-3.3 22.3-5 43.4-9.7 60.3-25.3 18.8-17.4 27.5-44.1 27.5-84.2V0l-4.4.3v100.2z" class="st0"/><path d="M17.7 100.5c0 34.7 6.9 57.2 21.7 71.1 13.5 12.6 32.4 16.8 52.4 21.2 2.4.5 6.2 2.5 9.2 4.1 2.4 1.3 4.5 2.4 6 2.8l.6.2.6-.2c1.4-.4 3.5-1.5 6-2.8 3-1.6 6.8-3.5 9.3-4.1 20-4.5 38.9-8.7 52.3-21.2 14.8-13.8 21.7-36.4 21.7-71.1V1.4l-4.4.3v98.8c0 33.4-6.5 54.9-20.3 67.8-12.6 11.7-30.1 15.6-50.3 20.2-3 .7-6.9 2.7-10.3 4.5-1.7.9-3.4 1.8-4.6 2.2-1.1-.4-2.9-1.4-4.5-2.2-3.4-1.8-7.3-3.8-10.3-4.5-20.2-4.5-37.7-8.4-50.3-20.2-13.9-12.9-20.3-34.5-20.3-67.8V1.8l-4.4-.3z" class="st0"/><path d="M178.6 175c-14.3 13.2-33.7 17.5-54.3 22.1-3.1.7-7.1 2.7-10.6 4.5-2.3 1.2-4.9 2.5-6.2 2.8-1.3-.3-3.9-1.6-6.2-2.8-3.5-1.8-7.5-3.8-10.6-4.5-20.5-4.6-39.9-8.9-54.2-22.1-15.9-14.7-23.3-38.3-23.3-74.5V1.1L8.8.7v99.8c0 37.5 7.8 62.2 24.7 77.8 15.1 14 35.1 18.4 56.2 23.2 2.6.6 6.3 2.4 9.6 4.1 3.8 1.9 6.1 3.1 7.9 3.3h.6c1.8-.2 4.2-1.4 7.9-3.3 3.3-1.6 7-3.5 9.6-4.1 21.2-4.7 41.2-9.2 56.3-23.2 16.8-15.6 24.7-40.3 24.7-77.8V.7l-4.4.3v99.5c0 36.2-7.4 59.8-23.3 74.5" class="st0"/><path d="M174.8 35.1c-3.3-3.7-7.5-6.1-11.9-6.7V11.7c3.8-.4 6.3-3.2 6.3-7.5h-3.1c0 2.6-1.2 4.2-3.5 4.4-1.3-7.1-6.4-8.3-9.6-8.3h-19.5c-12.1 0-12.1 9.6-12.1 13.2v18.3c0 14.6 9 27.2 21.7 32.4v8.1c0 1.3-.6 2.2-1.1 2.7-.7.7-1.6 1.1-2.4 1.1h-3.3c-3.9 0-6.1 2.2-6.1 6.1h3.6c0-1.9.6-2.5 2.5-2.5h4c-.3.7-.4 1.6-.4 2.5h3.6c0-1.9.6-2.5 2.5-2.5h3.3c1.8 0 3.6-.8 5-2.2s2.1-3.3 2.1-5.3v-9.6c-16.9 0-30.7-13.7-30.9-30.6h2.5c.2 15.5 12.8 28 28.4 28v-3.3c-13.7 0-24.8-11-25-24.7h2.6c.2 12.3 10.2 22.1 22.5 22.1V51c-10.5 0-19-8.4-19.2-18.9h21.5v34.6h4.2V32.6c.9.2 1.7.4 2.5.8v48.9h3.3v-47c.9.7 1.8 1.4 2.5 2.3v44.7h3.3v-40c1.6 3.2 2.6 7 2.6 11.5v28.5h4.2V53.8c-.1-9.4-3.6-15.4-6.6-18.7m-22 37.2c0 1.3-.6 2.2-1.1 2.7-.7.7-1.6 1.1-2.4 1.1h-3.6c.7-1.2 1-2.5 1-3.8v-6.8c2 .6 4 1 6.1 1.2zm1.6-60.6c2.6 0 4.8 2.1 4.8 4.8 0 2.6-2.1 4.8-4.8 4.8s-4.8-2.1-4.8-4.8c0-2.6 2.1-4.8 4.8-4.8m-20.9-7.2H153c2.1 0 4.4.6 5.3 4.2h-4.1c-5.6 0-9.9 2-12 5.2-2.2-3.2-6.5-5.2-12.2-5.2h-.1c-1.5 0-2.9.4-4.1 1.2.7-3.6 2.6-5.4 7.7-5.4m7.2 24h-15.1V23c1.3.9 2.8 1.4 4.4 1.4 4.3 0 7.9-3.5 7.9-7.9 0-1.1-.2-2.1-.6-3.1 2 1.2 3.4 3 3.4 5.6zm-5.9-12c0 2.6-2.1 4.8-4.8 4.8s-4.8-2.1-4.8-4.8 2.1-4.8 4.8-4.8 4.8 2.2 4.8 4.8m8.9 12V19c0-2.6 1.4-4.5 3.4-5.6-.4.9-.6 2-.6 3.1 0 4.3 3.5 7.9 7.9 7.9 1.6 0 3.1-.5 4.4-1.3v5.4z" class="st0"/></svg>