<svg xmlns="http://www.w3.org/2000/svg" viewBox="0 0 440.19 297.46"><path d="m40.3 94.71-.64-1.68c-8.78 5.36-14.29 10.67-13.34 13.31.02.06.03.11.06.17.04.07.08.14.13.21.02.03.04.07.06.1.03.04.08.08.11.12.05.05.09.11.15.15.03.02.07.04.1.07.07.06.15.11.23.16.06.04.13.06.19.1.07.03.13.07.2.1.04.02.09.03.13.05.1.04.21.08.32.11.48.14 1.06.23 1.71.26 3 .16 7.71-.8 13.28-2.68.03 0 .05-.02.08-.03a109.68 109.68 0 0 0 12.26-5.08c.43-.21.86-.42 1.28-.63 0 0 .02 0 .02-.01.81-.4 1.6-.81 2.37-1.21.94-.49 1.85-.99 2.74-1.49.57-.32 1.14-.64 1.69-.97.62-.36 1.22-.72 1.81-1.08.42-.26.84-.52 1.24-.78 1.02-.65 1.99-1.3 2.9-1.93.48-.34.95-.67 1.39-1 .61-.45 1.2-.9 1.75-1.34.73-.59 1.41-1.16 2.02-1.72.3-.28.59-.55.87-.83.95-.95 1.7-1.84 2.22-2.65.65-1.02.95-1.92.81-2.64-.03-.15-.07-.3-.14-.44-.09-.18-.21-.33-.35-.48-.46-.45-1.2-.75-2.18-.88-3.6-.49-10.45 1.07-18.45 4.21l.77 1.56 1.04 2.13c3.23-1.09 6.3-1.85 9.11-2.38.27 2.38-6.09 7.41-14.79 11.61-8.12 3.92-15.54 5.79-17.87 4.65 1.66-1.52 3.55-3.08 5.67-4.63l-.96-2.51ZM249.26 193.4c3.81 0 7.29-2.17 8.96-5.59a9.97 9.97 0 0 1 8.96-5.59h40.73c10.06 0 19.75-3.85 27.06-10.76l17.69-16.71 1.89-1.79h-73.09c-3.81 0-7.29 2.17-8.96 5.59a9.97 9.97 0 0 1-8.96 5.59h-38.83c.15.6.29 1.19.43 1.79a113 113 0 0 1 2.85 25.29c0 .73-.01 1.45-.03 2.17h21.29ZM292.26 118.11a9.97 9.97 0 0 1-8.96 5.59h-77.75c6.62 8.84 11.97 18.68 15.79 29.25h47.68c3.81 0 7.29-2.17 8.96-5.59a9.97 9.97 0 0 1 8.96-5.59h63.79c10.06 0 19.74-3.85 27.06-10.76l18.64-17.61.95-.89h-96.15c-3.81 0-7.29 2.17-8.96 5.59ZM220.35 232.11c-.23.58-.46 1.16-.7 1.73h9.84c3.81 0 7.29-2.17 8.96-5.59a9.97 9.97 0 0 1 8.96-5.59h17.67c10.06 0 19.75-3.85 27.06-10.76l19.59-18.5H261.7c-3.81 0-7.29 2.17-8.96 5.59a9.97 9.97 0 0 1-8.96 5.59H227.2a113 113 0 0 1-3.17 16.34c-1.04 3.81-2.27 7.54-3.68 11.18ZM209.32 253.39a112.8 112.8 0 0 1-17.8 20.87c0 .02 0 0 .01.02l9.72-.81c7.44-.62 14.75-2.92 20.8-7.3 2.71-1.96 6.01-3.08 9.49-3.08 5.19.5 10.48-3.85 17.8-10.76l10.73-10.14 8.86-8.36h-26.97c-3.81 0-7.29 2.17-8.96 5.59a9.97 9.97 0 0 1-8.96 5.59h-9.67c-1.56 2.87-3.25 5.65-5.04 8.36ZM320.98 72.07c-3.81 0-7.29 2.17-8.96 5.59a9.97 9.97 0 0 1-8.96 5.59H147.82c18.51 5.57 35 15.77 48.15 29.26h92.8c3.81 0 7.29-2.17 8.96-5.59a9.97 9.97 0 0 1 8.96-5.59h86.85c10.06 0 19.75-3.85 27.06-10.76l19.59-18.5H320.97Z"/><path d="M47.44 132.05c-16.66 4.07-12.4-10.89-17.18-7.76-.57.37-.48.15-1 .58-1.96 1.62-3.62 3.22-5.4 4.89-2.12 2-3.96 4.33-5.62 6.7-3.32 4.72-5.92 9.91-8.28 15.16-5.27 11.7-8.69 25.32-9.67 38.15-2 26.06 6.71 53.03 24.46 72.35 11.95 13.01 27.51 22.54 44.32 27.99 1.1.36 2.21.7 3.32 1.02.93.27.77 1.63-.19 1.68-6.3.34-10.05.78-10.05 1.24 0 .07.09.13.22.19-.53.04-1.07.07-1.6.1.83.05 1.67.09 2.51.15.03 0 .06 0 .09.01 3.29.61 13.03 1.11 26.03 1.37 28.79 1.2 58.06 1.49 86.51 1.59 33.08-.13 67.32-.51 100.59-2.26 1.09-.06 1.09-1.67 0-1.72-33.28-1.75-67.49-2.13-100.59-2.27-12.92.04-26.01.14-39.16.33-.98.01-1.21-1.34-.29-1.67 44.86-15.7 74.02-63.44 67.24-110.7-4.77-33.26-25.85-62.2-55.96-76.98-5.33-2.61-10.94-4.79-16.78-6.47a.87.87 0 0 0-1.01.44l-2.95 5.78c-1.69 3.32-3 6.53-4.23 10.08-.19.55.21 1.13.79 1.14 3.92.08 16.66-.12 21.97-.21.78-.01 1.17.93.61 1.47-4.73 4.57-13.56 15.62-13.56 15.62-9.4 12-19 29.33-26.67 43.71-.47.88-1.8.39-1.6-.59l.84-3.92s0-.03.01-.05l4.86-17.68c1.17-4.24 2.58-8.24 4.02-12.32l3.02-8.63c.22-.64-.35-1.28-1.01-1.12-7.31 1.77-13.8 4.06-20.11 6.62-.71.29-1.42-.43-1.12-1.13 6.47-15.21 14.54-29.03 24.41-41.86a101.599 101.599 0 0 0-33.54.1.86.86 0 0 1-.89-.42l-4.28-7.58c-.33-.59-1.19-.58-1.5.02-.12.23-.25.46-.41.7-4.81 7.34-13.17 11.84-20.85 15.61-7.52 3.7-15.84 7.05-24.18 8.15-1.18.15-2.36.25-3.54.2a9 9 0 0 1-1.13-.12c-.71-.12-1.26.61-.92 1.24.68 1.27 1.55 2.89 2.43 4.54.76 1.42 1.54 2.87 2.22 4.14 1.5 2.79 2.53 5.88 4.51 8.35.39.48 2.18 1.66 1.51 1.21-.03-.02 1.89 1.14 3.27 1.04 7.09-.49 4.8.3 14.09-2.73.89-.29-4.86 3.67-7.59 4.29m-2.62 93.64c.31-.58 1.25-1.13 2.2-.75.4.16 1.13.68 1.26 1.14.22.81-.32 1.57-.75 1.87-.57.41-1.5.54-2.06.17-.85-.54-1.15-1.47-.65-2.43m-21.43-22.17c-3.93-2.51-7.84-4.73-12.06-6.72-.78-.37-.6-1.51.25-1.63l3.81-.51c4.6-.61 9.28.2 12.4 3.86l7.97 9.38 2.58 3.19c.61.76-.31 1.79-1.13 1.26l-13.81-8.84Zm14.57 33.26c-4.13-1.36-7.72-3.75-10.28-7.32-3.59-5.02-4.56-11.38-2.84-17.24.15-.5.72-.74 1.2-.51 1.42.68 2.69 1.34 3.98 2.14l4.78 2.94c.32.19.47.57.38.93-.51 2.26-.52 4.38.29 6.45 1.75 4.5 6.17 7.1 10.94 6.28 1.78-.28 3.35-.89 5.01-1.77a.86.86 0 0 1 .9.05l5.59 3.88c.48.34.5 1.05.02 1.4-5.28 3.95-13.89 4.79-19.97 2.77m78.59-41.77 5.11-6.39c2.48-3.11 5.47-5.67 8.92-7.64 1.82-1.04 3.77-1.43 5.78-1.98 2.98-.82 5.88-1.15 8.97-.58l3.89.72c.91.17.94 1.47.04 1.68-12.88 3.02-18.5 6.88-29.36 16.44l-8.57 7.55c-.78.68-1.88-.33-1.26-1.16l6.49-8.63Zm3.41 17.23c-1.47-.77-1.47-2.69-.86-4.19.27-.65 1-1.11 1.59-1.18 1.46-.16 2.95 1.89 2.85 3.11-.07.82-.44 1.75-1.23 2.25-.62.4-1.67.36-2.35 0Zm1.05 8.51c-1.88 2.83-5.4 3.37-8.27 2.1-1.52-.66-2.72-1.76-3.19-3.22 3.16 3.11 7.63 3.11 11.46 1.11Zm-26.52 11.03 10.95-10.97c.35-.35.92-.33 1.25.04 1.22 1.38 2.39 2.78 3.98 3.68 4.56 2.6 10.31 1.36 13.87-2.36 3.23-3.5 3.75-8.54 1.39-12.67-.88-1.54-2.02-2.73-3.39-3.82a.857.857 0 0 1 .04-1.38l8.46-5.92c1.25-.87 2.6-1.53 4.03-1.98 1.04-.33 1.56 1.22.56 1.62l-.09.04c-.42.17-.63.65-.49 1.08 3.85 11.23 3.66 20.01-4.31 29.32-.03.04-.07.07-.1.1-9.99 8.89-23.76 10.54-35.93 4.6-.53-.26-.63-.96-.22-1.38M123.55 36.25C128.91 25 130.3 11.56 125.66 0c-3.93 8.69-10.39 16.21-18.37 21.42.66-2.77.65-5.69-.02-8.46-1.52 3.49-4.51 6.32-8.08 7.66-2.57.96-5.36 1.17-8.1 1.31-10.35.53-20.72.3-31.08.6-3.49.1-7.03.28-10.34 1.39-6.08 2.04-10.71 7.02-14.01 12.56-.12-.44-.52-1.91-.37-1.89 0 0-2.05.95-4.35.95 5.89-.91 8.02-6.82 7.48-10.36-.86-5.54-6.05-9.34-11.59-8.48s-9.34 6.05-8.48 11.59c.73 4.73 4.62 8.18 9.2 8.56.44 3.56 1.03 7.07 1.72 10.56 3 14.97 7.56 29.53 12.79 43.84.19.53.38 1.07.58 1.6.32.86.64 1.72.97 2.58.03.09.07.17.09.26.18.48.4.92.66 1.34.38.61 1.17.84 1.85.6 2.1-.75 4.16-1.6 6.15-2.6 1.89-.96 4.06-2.02 5.6-3.51.37-.36.63-.78.44-1.34-.12-.33-.27-.65-.44-.97-.16-.3-.31-.6-.47-.89-.39-.74-.78-1.47-1.16-2.21-.26-.5-.53-.99-.78-1.5-2.54-4.9-4.98-9.86-7.29-14.86 4.46-3.69 10.28-5.99 16.05-7.05 8.97-1.63 18.18-.83 27.28-1.26 9.11-.44 18.65-2.37 25.46-8.42 2.4-2.13 4.42-4.78 5.36-7.85-4.01 3.37-9.1 5.21-16.53 3.32 4.37-.88 8.95-1.85 12.37-4.72 2.37-1.98 3.98-4.72 5.32-7.52Zm-31.17 3.8c2.36-.07 4.7-.7 6.78-1.82-1.91 3.28-5.31 5.34-8.57 7.27-1.44.86-2.9 1.71-4.34 2.57-1.31.78-2.53 1.5-4 1.91-1.5.42-3.06.62-4.61.74-2.36.19-4.73.2-7.06.57-2.47.4-4.87 1.19-7.09 2.34-.99.52-2.17 1.05-2.84 1.95-.71.97-1.23 2.08-.97 3.31-.04-.17-.28-.41-.36-.59-.12-.22-.2-.46-.27-.7-.12-.46-.17-.95-.12-1.43.11-1.38.6-2.83 1.65-3.77.78-.71 1.71-1.27 2.64-1.76.14-.08.28-.15.43-.22-.08.04-.54-.17-.62-.19-.57-.12-1.15-.15-1.73-.09-1.22.12-2.38.67-3.38 1.36-1.35.92-2.56 2.09-3.7 3.25a41 41 0 0 0-3.25 3.75l-.21.27q-.78 1.02-1.5 2.1c-.99 1.48-1.93 3.07-2.96 4.56-.78-1.77-1.56-3.55-2.32-5.33-.44-1.04-.86-2.08-1.28-3.11 1.63-2.95 3.02-6.04 4.62-9.01 2.58-4.79 5.94-9.47 10.85-11.8 2.1-.99 4.39-1.51 6.69-1.83 6.77-.95 13.67-.25 20.5-.61 6.83-.35 13.98-1.93 18.99-6.59-1.53 5.84-6.59 10.12-11.95 12.9Z"/></svg>