<svg xmlns="http://www.w3.org/2000/svg" width="401" height="520" viewBox="0 0 401 520"><image width="401" height="520" preserveAspectRatio="none"/><path d="M.027 388.25.054 256.5 20.546 229c11.271-15.125 24.976-33.575 30.456-41s30.675-41.4 55.99-75.5 54.44-73.362 64.722-87.25C181.995 11.363 190.824 0 191.334 0c.515 0 .652 1.668.308 3.75-.341 2.063-.625 119.063-.631 260L191 520h-63.979l-.26-43.25-.261-43.25h-62l-.26 43.25-.261 43.25H0ZM127 273.5c0-51.425-.172-93.5-.382-93.5-.376 0-10.418 13.03-45.084 58.498L64 261.497V367h63Zm87.048 61.25.048-185.25 92.952 93.36L400 336.218V389h-63v-52.615l-28.438-24.192c-15.64-13.306-28.916-24.193-29.5-24.193-.742 0-1.062 28.188-1.062 93.5V475h63.053l-.276-14.66-.277-14.661-4.5-.223c-2.475-.123-10.237-.276-17.25-.34L306 445v-40.321l37.25.656c20.488.36 41.863.658 47.5.66L401 406v114H214Z" style="fill:#d7241a"/></svg>