<svg xmlns="http://www.w3.org/2000/svg" width="81.983" height="66.416" viewBox="0 0 21.691 17.573"><path fill="#ff7baa" d="M9.117 2.48c-1.53-.028-3.835 1.184-5.885 3.234C1.188 7.758 0 9.928 0 11.804c0 3.586 4.6 5.768 9.099 5.768 5.899 0 9.823-3.427 9.823-6.148.003-1.646-1.383-2.58-2.628-2.966-.305-.093-.515-.152-.356-.553.347-.871.383-1.623.006-2.161-.704-1.006-2.63-.952-4.84-.027 0 0-.695.302-.515-.246.338-1.092.288-2.005-.24-2.535-.299-.3-.722-.447-1.232-.456m-.198 5.21c.222-.01.42.012.632.016l.06.001c1.789.044 3.213.572 4.177 1.353.06.046.11.097.167.145a3.5 3.5 0 0 1 .705.797q.116.171.208.348.093.188.158.384.084.24.123.48c.008.055.035.103.04.158.005.044-.009.085-.006.128.004.079.03.156.027.235-.003.113-.04.232-.058.348-.013.088-.023.175-.044.262-.038.15-.097.298-.16.449-.052.13-.098.26-.167.385-.063.116-.15.227-.228.34-.09.132-.17.266-.278.392-.959 1.137-2.64 2.078-4.9 2.33-.089.01-.171.034-.261.043q-.03.001-.06.002c-.026.002-.048.009-.074.01-.107.008-.2-.002-.305.003-.372.02-.738.027-1.095.006-.204-.01-.39-.039-.582-.06-.198-.024-.396-.044-.585-.08a8 8 0 0 1-.976-.243l-.047-.014c-.743-.24-1.36-.57-1.852-.97l-.005-.005a4.2 4.2 0 0 1-.606-.6q-.051-.06-.1-.123a3.5 3.5 0 0 1-.367-.613c-.023-.05-.05-.097-.07-.147a3 3 0 0 1-.249-1.02c-.019-.775.319-1.556.917-2.26l.006-.009a5.4 5.4 0 0 1 .645-.625c.04-.035.075-.071.117-.105.208-.165.442-.315.684-.463.091-.056.176-.115.272-.168.212-.116.443-.218.677-.319.151-.066.298-.134.457-.193.21-.076.433-.139.657-.202.2-.057.4-.113.609-.158.24-.051.49-.088.743-.123.116-.016.224-.046.342-.057.072-.008.141-.001.214-.007.149-.013.285-.043.438-.05zm.392 4.327c-.125.215-.404.317-.62.227-.215-.086-.28-.329-.158-.538.126-.21.392-.312.605-.228.215.078.293.32.173.539m-1.146 1.466c-.347.554-1.093.797-1.652.542-.55-.251-.716-.895-.368-1.436.344-.54 1.062-.779 1.619-.545.563.242.742.88.4 1.44M9.47 9.562c-1.71-.446-3.64.407-4.382 1.912-.757 1.536-.024 3.242 1.7 3.798 1.79.578 3.897-.308 4.63-1.963.725-1.622-.18-3.29-1.948-3.747m10.742-7.667a5.74 5.74 0 0 0-5.465-1.77.83.83 0 0 0 .347 1.623 4.08 4.08 0 0 1 4.738 5.25.83.83 0 0 0 1.58.511v-.003a5.73 5.73 0 0 0-1.2-5.611M18.024 3.87a2.79 2.79 0 0 0-2.66-.859.713.713 0 1 0 .296 1.398 1.366 1.366 0 0 1 1.586 1.757.716.716 0 0 0 1.362.44 2.8 2.8 0 0 0-.584-2.736"/></svg>