<svg xmlns="http://www.w3.org/2000/svg" xml:space="preserve" x="0px" y="0px" style="enable-background:new 0 0 403.3 403.3" viewBox="0 0 403.3 403.3"><g fill="#fff"><path d="M35.3 131.7v.3c0 .9.3 1.5 1.3 1.5.6 0 1.2-.4 1.2-1.2 0-.9-.5-1.2-1.8-1.7-1.8-.6-2.6-1.3-2.6-3 0-1.9 1.2-2.9 3-2.9s3 .8 3 2.6v.3h-1.9c0-.9-.3-1.5-1.1-1.5-.9 0-1.1.6-1.1 1.1 0 .6.2 1 1 1.3l1.5.7c1.5.6 1.9 1.4 1.9 2.6 0 2.1-1.3 3-3.4 3-2.2 0-3.1-1-3.1-2.9v-.4h2.1zM63.1 126.6l1 4.4h-1.9l.9-4.4zm-1.2-1.7-2.6 9.8h2.1l.5-2.1h2.6l.5 2.1h2l-2.6-9.8h-2.5zM91.6 124.9v6.7l-2.4-6.7h-2.3v9.8h1.8v-6.8l2.5 6.8h2.2v-9.8zM136.6 124.9v9.8h1.9v-4.2h3.3v-1.6h-3.3v-2.4h3.5v-1.6zM164.1 129.2h.8c.9 0 1.5-.4 1.5-1.5 0-.9-.5-1.4-1.4-1.4h-.9v2.9zm-2-4.3h3.7c1.6 0 2.6.9 2.6 2.5 0 1.3-.5 2.2-1.6 2.4 1.3.2 1.6.9 1.6 3 0 1 .1 1.6.4 1.8v.1h-2.1c-.2-.3-.2-.6-.2-1l-.1-1.9c0-.8-.4-1.2-1.2-1.2h-1.1v4.1h-2v-9.8zM192.1 126.6l1 4.4h-1.9l.9-4.4zm-1.2-1.7-2.6 9.8h2.1l.5-2.1h2.6l.5 2.1h2.1l-2.6-9.8h-2.6zM220.6 124.9v6.7l-2.4-6.7h-2.3v9.8h1.8v-6.8l2.4 6.8h2.3v-9.8zM247.2 128.2c0-1.4-.3-2-1.2-2-1 0-1.2 1-1.2 3.8 0 3 .4 3.5 1.3 3.5.7 0 1.2-.4 1.2-2.5h2c0 2.1-.5 3.9-3.1 3.9-3 0-3.3-2.1-3.3-5.1 0-3 .4-5.1 3.3-5.1 2.8 0 3 2.1 3 3.5h-2zM269.7 124.9h2v9.8h-2zM294 131.7v.3c0 .9.3 1.5 1.3 1.5.6 0 1.2-.4 1.2-1.2 0-.9-.5-1.2-1.8-1.7-1.8-.6-2.6-1.3-2.6-3 0-1.9 1.2-2.9 3-2.9s3 .8 3 2.6v.3h-1.9c0-.9-.3-1.5-1.1-1.5-.9 0-1.1.6-1.1 1.1 0 .6.2 1 1 1.3l1.5.7c1.5.6 1.9 1.4 1.9 2.6 0 2.1-1.3 3-3.4 3-2.2 0-3.1-1-3.1-2.9v-.4h2.1zM323 128.2c0-1.4-.3-2-1.2-2-1 0-1.2 1-1.2 3.8 0 3 .4 3.5 1.3 3.5.7 0 1.2-.4 1.2-2.5h2c0 2.1-.5 3.9-3.1 3.9-3 0-3.3-2.1-3.3-5.1 0-3 .4-5.1 3.3-5.1 2.8 0 3 2.1 3 3.5h-2zM348.5 133.5c1.2 0 1.4-1 1.4-3.6s-.2-3.6-1.4-3.6-1.4 1-1.4 3.6.2 3.6 1.4 3.6m0-8.8c3 0 3.3 2.1 3.3 5.1s-.4 5.1-3.3 5.1c-3 0-3.3-2.1-3.3-5.1s.3-5.1 3.3-5.1"/></g><g fill="#fc4c02"><path d="M69.2 239.2v14.5l1.4 5.4 1.4-5.4v-14.5l-1.4-5.5zM62.5 240.5v11.8l1.4 4.4 1.4-4.4v-11.8l-1.4-4.4zM76.4 239.8v13.3l1.4 9.5 1.4-9.5v-13.3l-1.4-9.6zM84 237.8V255l1.5 8.6 1.4-8.6v-17.2l-1.4-8.6zM91.2 235.4v22.1l1.4 8 1.5-8v-22.1l-1.5-8.1zM98.4 233.1V259.8l1.4 7.9 1.5-7.9V233.1l-1.5-8zM105.6 223.8V269l1.4 9.6 1.4-9.6v-45.2l-1.4-9.5zM149.6 239.2v14.5l1.5 5.4 1.4-5.4v-14.5l-1.4-5.5zM156.3 240.5v11.8l1.5 4.4 1.4-4.4v-11.8l-1.4-4.4zM142.4 239.8v13.3l1.5 9.5 1.4-9.5v-13.3l-1.4-9.6zM134.8 237.8V255l1.4 8.6 1.4-8.6v-17.2l-1.4-8.6zM127.6 235.4v22.1l1.4 8 1.5-8v-22.1l-1.5-8.1zM120.4 233.1V259.8l1.4 7.9 1.5-7.9V233.1l-1.5-8zM113.2 223.8V269l1.5 9.6 1.4-9.6v-45.2l-1.4-9.5zM163 241.5v9.8l1.5 3.7 1.4-3.7v-9.8l-1.4-3.7zM170.2 241.9v9l1.4 6.5 1.5-6.5v-9l-1.5-6.4zM177.9 240.6V252.2l1.4 5.8 1.4-5.8V240.6l-1.4-5.8zM185 238.9v15l1.5 5.4 1.4-5.4v-15l-1.4-5.4zM192.2 237.4v18l1.5 5.4 1.4-5.4v-18l-1.4-5.4zM199.4 231.1v30.6l1.5 6.4 1.4-6.4v-30.6l-1.4-6.4zM243.5 241.5v9.8l1.4 3.7 1.4-3.7v-9.8l-1.4-3.7zM236.3 241.9v9l1.4 6.5 1.5-6.5v-9l-1.5-6.4zM228.6 240.6V252.2l1.5 5.8 1.4-5.8V240.6l-1.4-5.8zM221.4 238.9v15l1.5 5.4 1.4-5.4v-15l-1.4-5.4zM214.3 237.4v18l1.4 5.4 1.4-5.4v-18l-1.4-5.4zM207.1 231.1v30.6l1.4 6.4 1.4-6.4v-30.6l-1.4-6.4zM251.1 243.1v6.6l1.5 2.5 1.4-2.5v-6.6l-1.4-2.5zM258.3 243.4v6.1l1.4 4.3 1.5-4.3v-6.1l-1.5-4.4zM266 242.5v7.9l1.4 3.9 1.4-3.9v-7.9l-1.4-4zM273.2 241.4v10.1l1.4 3.7 1.4-3.7v-10.1l-1.4-3.7zM280.3 240.3v12.2l1.5 3.6 1.4-3.6v-12.2l-1.4-3.6zM287.5 236.1v20.6l1.5 4.4 1.4-4.4v-20.6l-1.4-4.4zM331.6 243.1v6.6l1.4 2.5 1.4-2.5v-6.6l-1.4-2.5zM324.4 243.4v6.1l1.4 4.3 1.5-4.3v-6.1l-1.5-4.4zM316.7 242.5v7.9l1.5 3.9 1.4-3.9v-7.9l-1.4-4zM309.5 241.4v10.1l1.5 3.7 1.4-3.7v-10.1l-1.4-3.7zM302.4 240.3v12.2l1.4 3.6 1.4-3.6v-12.2l-1.4-3.6zM295.2 236.1v20.6l1.4 4.4 1.4-4.4v-20.6l-1.4-4.4zM33.3 243.1v6.6l1.4 2.5 1.4-2.5v-6.6l-1.4-2.5zM40.4 243.4v6.1l1.5 4.3 1.4-4.3v-6.1l-1.4-4.4zM48.1 242.5v7.9l1.4 3.9 1.5-3.9v-7.9l-1.5-4zM55.3 241.4v10.1l1.4 3.7 1.5-3.7v-10.1l-1.5-3.7zM352 245.5h-14.2v1.9H352l8.8-.9zM5 246.5l8.8.9H28v-1.9H13.8z"/></g><path fill="#a5acaf" d="M124.2 171.4H97.5v-25.3H74.6v72H98v-28.5h26.2v28.5h22.9v-72h-22.9zM400.4 246.7C392 235 363.7 194 355.3 182c8.4-12 16.7-23.8 25.1-35.9h-28c-8.3 12.2-16.9 23.9-24.8 35.7v-35.7h-22.9v72h22.9v-35.8c8.4 12.2 36.5 52.6 44.8 64.3h28zM208.4 193c0 3.3-2.7 6-6 6H177c-3.3 0-6-2.7-6-6v-22.2c0-3.3 2.7-6 6-6h25.4c3.3 0 6 2.7 6 6V193zm3.4-46.9h-42.3c-10.3 0-18.6 8.3-18.6 18.6v34.8c0 10.3 8.3 18.6 18.6 18.6h42.3c10.3 0 18.6-8.3 18.6-18.6v-34.8c0-10.3-8.4-18.6-18.6-18.6M233.6 164.6v35.2c0 10.3 8.1 18.4 18.4 18.4h49.4v-18.7h-41.1c-3.3 0-6.1-2.7-6.1-6V171c0-3.3 2.8-6.1 6.1-6.1h41.1v-18.7H252c-10.3-.1-18.4 8.1-18.4 18.4M17.8 146.1c-6.7.2-11.9 4.5-13.7 11.3-1.5 5.5-1.6 11.3-.3 16.8 1.5 6.6 5.3 10.9 12.1 12.6l30.2 8.9c.6.4 1 1.2 1 2.1 0 .9-.4 1.7-1.1 2.1-.2.2-.5.3-.8.3h-41v17.9h51.5c7.6 0 12.7-4.3 14-10.8.9-4.2 1-8.7.9-13-.3-11.1-4.8-14.9-15-17.7-8.6-2.4-17.1-4.6-25.7-7-1.1-.3-2.3-.7-3.1-1.3-.6-.4-1-1.2-1-2.1 0-1.3.9-2.4 2-2.4h43v-17.7h-53z"/></svg>