<svg xmlns="http://www.w3.org/2000/svg" xml:space="preserve" id="레이어_1" x="0px" y="0px" style="enable-background:new 0 0 1856.25 1095.36" version="1.1" viewBox="0 0 1856.25 1095.36"><style>.st0{fill:#f5cc29}</style><path d="M1040.25 630.55v-1.05H653.63c-84.43 0-153.12 64.31-153.12 143.36 0 52.31 30.08 98.14 74.89 123.17 23.19 12.95 49.63 18.96 76.2 18.96h91.71c20.35.63 36.44 17.29 36.58 36.58.15 20.55-17.82 38.11-39.53 37.1l-198.72-.25-.11-.06H394.54l86.51-286.24-156.07-114.31 241.37-2.22 64.48-214.68 70.85 213.2 698.59-.85 132.71-110.94L778.79 476 629.94 0 486.32 479.2 0 484.1l355.89 259.63-106.76 351.64h494.59l-.14-.08c82.66-1.63 149.39-65.05 149.39-142.83 0-78.8-68.47-142.91-152.63-142.91H651c-16.61 0-30.61-11.07-35.07-26.23-.69-2.16-1.16-4.41-1.41-6.72-.06-.82-.09-1.64-.09-2.48 0-4.55.87-8.88 2.38-12.9-1.52 3.78-2.41 7.85-2.5 12.1 0-.15-.02-.29-.02-.44 0-4.51.92-8.81 2.52-12.8 4.98-13.19 17.33-22.71 32.04-23.57l277.65-.3v252.17h-.53v106.92h.53v.08l.16-.08h319.09V988.36h-205.48V630.55z" class="st0"/><path d="M1391.1 864.63V626.62h-314.18v106.92h204.82v358.87l533.44-465.79h-155.07z" class="st0"/><path d="m1452.43 726.67 403.82-341.42h-155.08l-248.74 210.41z" class="st0"/></svg>